Coordinates
version=1
nRows=22
nColumns=24
inDegrees=yes

Units are S.I. units (second, meters, Newtons, ...)
Angles are in degrees.

endheader
time	pelvis_tilt	pelvis_list	pelvis_rotation	pelvis_tx	pelvis_ty	pelvis_tz	hip_flexion_r	hip_adduction_r	hip_rotation_r	knee_angle_r	ankle_angle_r	subtalar_angle_r	mtp_angle_r	hip_flexion_l	hip_adduction_l	hip_rotation_l	knee_angle_l	ankle_angle_l	subtalar_angle_l	mtp_angle_l	lumbar_extension	lumbar_bending	lumbar_rotation
      1.23316667	     -0.69348783	      4.35684869	     -4.21748265	      0.26132242	      1.03168717	      0.27464203	     18.59380669	     -5.48901038	     -4.39874728	    -67.69451611	      2.00214399	     -5.85454237	      9.28744760	      7.45036182	      8.47229205	      0.23483568	     -8.39291360	      4.65808601	     -9.56184554	     -0.67126700	     -4.58147045	     -7.76644946	      3.83672796
      1.23733333	     -0.78088068	      4.13191652	     -4.26649542	      0.26636173	      1.03233554	      0.27446492	     19.19759578	     -5.15326776	     -4.27097184	    -67.39761637	      2.58993493	     -5.87686235	      7.57193034	      7.09192747	      8.28281518	      0.53569939	     -8.14939312	      4.62380407	    -10.00344407	     -1.02343165	     -4.59988231	     -7.47385039	      3.80954579
      1.24150000	     -0.88111014	      3.91110040	     -4.34106296	      0.27140986	      1.03292178	      0.27437035	     19.80729311	     -4.80575294	     -4.11448667	    -67.05106229	      3.15363825	     -5.87434417	      7.45066750	      6.80589346	      8.06277129	      0.46592574	     -8.02585191	      4.79923161	     -9.84613074	     -1.05084058	     -4.57111134	     -7.21077898	      3.77021659
      1.24566667	     -0.95851388	      3.68306814	     -4.41249334	      0.27646131	      1.03353036	      0.27426688	     20.36875028	     -4.45000161	     -3.97287695	    -66.63050706	      3.61258494	     -5.99908917	      7.43161065	      6.47219453	      7.84573993	      0.49288644	     -7.85293546	      4.90668960	     -9.87117203	     -1.05644861	     -4.57639831	     -6.91543452	      3.74874491
      1.24983333	     -1.03819272	      3.43266411	     -4.45466581	      0.28148890	      1.03414231	      0.27412752	     20.90267172	     -4.07785002	     -3.86414001	    -66.13501996	      4.04202026	     -6.05221569	      7.39525575	      6.14972999	      7.60778780	      0.56389327	     -7.70296520	      5.00610748	     -9.91709769	     -1.06737023	     -4.60475372	     -6.59775340	      3.72269842
      1.25400000	     -1.11123952	      3.20285747	     -4.50941646	      0.28654552	      1.03471217	      0.27401117	     21.41776353	     -3.72630493	     -3.74617467	    -65.59554489	      4.46154992	     -6.13094320	      7.36978719	      5.80961400	      7.39160144	      0.61410961	     -7.52614051	      5.11277528	     -9.96375859	     -1.07583953	     -4.60779832	     -6.30818740	      3.68886905
      1.25816667	     -1.18378543	      2.95255673	     -4.52828387	      0.29156823	      1.03526988	      0.27384827	     21.90235792	     -3.36452459	     -3.67055898	    -64.98238196	      4.83293524	     -6.17022921	      7.31809344	      5.48269064	      7.15797660	      0.72048443	     -7.38106410	      5.20008343	    -10.04191744	     -1.09339399	     -4.64898888	     -5.99178169	      3.64182690
      1.26233333	     -1.24965726	      2.71377703	     -4.54977838	      0.29659830	      1.03580310	      0.27370318	     22.36389673	     -3.01421312	     -3.59230626	    -64.31744765	      5.17712628	     -6.23079335	      7.25035711	      5.14101776	      6.93681240	      0.82581436	     -7.21444265	      5.28170880	    -10.13899279	     -1.11741120	     -4.68401999	     -5.69158213	      3.57871933
      1.26650000	     -1.31249172	      2.49614263	     -4.58301068	      0.30165988	      1.03629086	      0.27357906	     22.80808246	     -2.68634616	     -3.50603223	    -63.60547974	      5.52519668	     -6.31251715	      7.21638505	      4.79388905	      6.73612964	      0.88403563	     -7.04067974	      5.37992260	    -10.19806113	     -1.13042119	     -4.69200778	     -5.41141106	      3.53505553
      1.27066667	     -1.33288434	      2.24622201	     -4.56810037	      0.30668614	      1.03685245	      0.27339084	     23.16508281	     -2.34400810	     -3.47338683	    -62.79949612	      5.74934490	     -6.41688440	      7.08199776	      4.39437224	      6.51295387	      1.08373759	     -6.85654863	      5.43743553	    -10.36377180	     -1.18163714	     -4.80268565	     -5.10283788	      3.41227094
      1.27483333	     -1.40764510	      2.01259382	     -4.55723079	      0.31170655	      1.03726397	      0.27322356	     23.57213207	     -2.01319792	     -3.43426549	    -61.95983953	      6.03297722	     -6.49451855	      7.01733968	      4.08773456	      6.29545878	      1.16279865	     -6.73766673	      5.51810001	    -10.44605596	     -1.20818001	     -4.82772467	     -4.80986452	      3.36499987
      1.27900000	     -1.44508343	      1.78764921	     -4.53350092	      0.31673381	      1.03770105	      0.27303762	     23.91550676	     -1.70357093	     -3.40998103	    -61.05770859	      6.24715551	     -6.61575589	      6.93777109	      3.72988774	      6.09317436	      1.28788292	     -6.59346196	      5.60397003	    -10.53834064	     -1.24041758	     -4.89347550	     -4.52777002	      3.28855057
      1.28316667	     -1.47394306	      1.58177211	     -4.50846326	      0.32176659	      1.03810080	      0.27287721	     24.23188060	     -1.41175307	     -3.38170561	    -60.10167565	      6.41076116	     -6.83909605	      6.72223168	      3.34761682	      5.91399777	      1.46915772	     -6.41038041	      5.63597973	    -10.74606458	     -1.33361382	     -4.97767639	     -4.27498748	      3.11882946
      1.28733333	     -1.52940816	      1.36921788	     -4.45674106	      0.32680899	      1.03843778	      0.27266780	     24.55012698	     -1.13004316	     -3.39009956	    -59.08208875	      6.54245716	     -6.98015392	      6.59145502	      3.01305797	      5.72367414	      1.61912031	     -6.26960577	      5.73814893	    -10.82068820	     -1.38908212	     -5.00769743	     -4.00750071	      3.04569685
      1.29150000	     -1.58553605	      1.14565724	     -4.38433720	      0.33183289	      1.03873540	      0.27242430	     24.84326770	     -0.84705266	     -3.42214441	    -58.00308016	      6.66981267	     -7.14367713	      6.50817590	      2.70171803	      5.52059224	      1.74254364	     -6.17425514	      5.83261901	    -10.89561720	     -1.42404360	     -5.05941001	     -3.71342750	      2.97254429
      1.29566667	     -1.60214426	      0.95881430	     -4.31643482	      0.33688104	      1.03904038	      0.27221795	     25.07722599	     -0.60212746	     -3.44018832	    -56.86885464	      6.69777168	     -7.43136321	      6.37396938	      2.32176461	      5.36039458	      1.91902351	     -6.01662920	      5.91253447	    -11.00802231	     -1.48087752	     -5.13232820	     -3.48793894	      2.82220815
      1.29983333	     -1.64723455	      0.77104708	     -4.23011797	      0.34191488	      1.03926697	      0.27199476	     25.31871849	     -0.36137777	     -3.47419695	    -55.67861989	      6.72569565	     -7.73420717	      6.20489847	      1.98829043	      5.19593243	      2.09928083	     -5.88936606	      5.97599475	    -11.14003162	     -1.55534018	     -5.19721741	     -3.24719998	      2.66646870
      1.30400000	     -1.71252830	      0.57077215	     -4.11076427	      0.34696050	      1.03943391	      0.27168972	     25.55192403	     -0.13307732	     -3.55861246	    -54.42481631	      6.74036031	     -7.96457660	      6.10437348	      1.70077673	      5.01700182	      2.25752062	     -5.81461908	      6.07900256	    -11.21365273	     -1.59672215	     -5.22862309	     -2.97667235	      2.57564122
      1.30816667	     -1.72501983	      0.39960035	     -4.00587059	      0.35204135	      1.03964434	      0.27145315	     25.70605480	      0.07480461	     -3.61547217	    -53.10884719	      6.64771203	     -8.37484758	      5.94133965	      1.32263314	      4.87074620	      2.44882338	     -5.66396515	      6.15068523	    -11.32564498	     -1.66577399	     -5.30216787	     -2.77209959	      2.38699625
      1.31233333	     -1.78004677	      0.23641000	     -3.87552948	      0.35710814	      1.03974058	      0.27117805	     25.88661631	      0.26063544	     -3.70139634	    -51.74618272	      6.56501889	     -8.74694911	      5.76131765	      1.01279523	      4.72909142	      2.64523384	     -5.55469627	      6.22351823	    -11.43498196	     -1.74302659	     -5.33795312	     -2.55864466	      2.21531789
      1.31650000	     -1.82042172	      0.07201387	     -3.72552871	      0.36219818	      1.03983295	      0.27086127	     26.02019036	      0.43137053	     -3.81563631	    -50.31707562	      6.44634440	     -9.10870880	      5.61071050	      0.69851937	      4.58686806	      2.83026305	     -5.47230019	      6.32012773	    -11.51802976	     -1.80509213	     -5.37807735	     -2.33578452	      2.07323193
      1.32066667	     -1.86800022	     -0.07272840	     -3.57905591	      0.36732136	      1.03986936	      0.27057794	     26.14240791	      0.58312741	     -3.93013507	    -48.84121379	      6.28858127	     -9.54458260	      5.42781520	      0.37355931	      4.46181469	      3.02505094	     -5.34530872	      6.39461245	    -11.60752324	     -1.88178093	     -5.41975199	     -2.15285257	      1.88296943
